<svg xmlns="http://www.w3.org/2000/svg" fill="none" viewBox="0 0 24 24" id="Refresh--Streamline-Rounded-Material" height="24" width="24">
  <desc>
    Refresh Streamline Icon: https://streamlinehq.com
  </desc>
  <path fill="#fff" d="M12 20c-2.21665 0 -4.10415 -0.77915 -5.6625 -2.3375C4.779165 16.10415 4 14.21665 4 12c0 -2.21665 0.779165 -4.10415 2.3375 -5.6625C7.89585 4.779165 9.78335 4 12 4c1.41665 0 2.65835 0.2875 3.725 0.8625 1.06665 0.575 1.99165 1.3625 2.775 2.3625V4.75c0 -0.216665 0.07085 -0.395835 0.2125 -0.5375 0.14165 -0.141665 0.32085 -0.2125 0.5375 -0.2125 0.21665 0 0.39585 0.070835 0.5375 0.2125 0.14165 0.141665 0.2125 0.320835 0.2125 0.5375v4.85c0 0.21665 -0.07085 0.39585 -0.2125 0.5375s-0.32085 0.2125 -0.5375 0.2125h-4.85c-0.21665 0 -0.39585 -0.07085 -0.5375 -0.2125s-0.2125 -0.32085 -0.2125 -0.5375c0 -0.21665 0.07085 -0.39585 0.2125 -0.5375s0.32085 -0.2125 0.5375 -0.2125h3.45c-0.63335 -1 -1.44165 -1.80835 -2.425 -2.425C14.44165 5.80835 13.3 5.5 12 5.5c-1.81665 0 -3.35415 0.62915 -4.6125 1.8875C6.12915 8.64585 5.5 10.18335 5.5 12c0 1.81665 0.62915 3.35415 1.8875 4.6125C8.64585 17.87085 10.18335 18.5 12 18.5c1.25 0 2.41665 -0.32915 3.5 -0.9875 1.08335 -0.65835 1.89165 -1.54585 2.425 -2.6625 0.08335 -0.18335 0.22085 -0.32085 0.4125 -0.4125 0.19165 -0.09165 0.37915 -0.09585 0.5625 -0.0125 0.2 0.08335 0.33335 0.22085 0.4 0.4125 0.06665 0.19165 0.05835 0.3875 -0.025 0.5875 -0.65 1.4 -1.62915 2.5125 -2.9375 3.3375C15.02915 19.5875 13.58335 20 12 20Z" stroke-width="0.5"></path>
</svg>